<?xml version="1.0" encoding="UTF-8" standalone="no"?>
<!DOCTYPE svg PUBLIC "-//W3C//DTD SVG 1.1//EN" "http://www.w3.org/Graphics/SVG/1.1/DTD/svg11.dtd">
<svg width="100%" height="100%" viewBox="0 0 200 200" version="1.1" xmlns="http://www.w3.org/2000/svg" xmlns:xlink="http://www.w3.org/1999/xlink" xml:space="preserve" xmlns:serif="http://www.serif.com/" style="fill-rule:evenodd;clip-rule:evenodd;stroke-linecap:round;stroke-linejoin:round;">
    <g transform="matrix(1.42576,0,0,1.42576,-40.6119,-24.2538)">
        <path d="M71.16,32C90.387,38 109.613,38 128.84,32C136.173,32 138.007,35.177 134.34,41.53C119.527,55.177 109.913,71.823 105.5,91.47C101.833,97.823 98.167,97.823 94.5,91.47C90.087,71.823 80.473,55.177 65.66,41.53C61.993,35.177 63.827,32 71.16,32Z" style="fill:none;fill-rule:nonzero;stroke:black;stroke-width:2px;"/>
    </g>
    <g transform="matrix(1.42576,0,0,1.42576,-42.1491,-79.9177)">
        <path d="M58.84,92C66.265,94.345 74.282,94.035 81.116,97.132C82.951,97.963 91.414,115.566 95.916,130.233C98.401,138.329 105.432,137.54 107.353,128.172C109.299,118.689 117.671,98.897 121.566,96.715C127.342,93.481 134.629,94.063 141.16,92C151.827,92 154.493,96.62 149.16,105.86C127.933,125.287 114.213,149.047 108,177.14C102.667,186.38 97.333,186.38 92,177.14C85.787,149.047 72.067,125.287 50.84,105.86C45.507,96.62 48.173,92 58.84,92Z" style="fill:none;fill-rule:nonzero;stroke:black;stroke-width:2px;"/>
    </g>
</svg>
